<svg width="278" height="278" viewBox="0 0 278 278" fill="none" xmlns="http://www.w3.org/2000/svg">
<g clip-path="url(#clip0)">
<path d="M59.488 117.299C58.984 113.062 57.481 109.128 55.215 105.743L258.207 37.967L247.552 6.05103C246.003 1.41303 240.986 -1.08997 236.351 0.457034L15.54 74.182C10.905 75.729 8.397 80.745 9.946 85.383L15.171 101.03C9.955 105.873 6.683 112.782 6.683 120.445C6.683 130.369 12.169 139.031 20.265 143.572V268.592C20.265 273.483 24.232 277.445 29.119 277.445H261.912C266.797 277.445 270.764 273.482 270.764 268.592V117.299H59.488ZM188.869 26.724L215.744 17.751L209.277 43.891L182.402 52.864L188.869 26.724ZM122.47 48.893L149.347 39.92L142.88 66.059L116.005 75.033L122.47 48.893ZM33.181 133.946C25.739 133.946 19.683 127.89 19.683 120.446C19.683 113.002 25.739 106.946 33.181 106.946C40.625 106.946 46.681 113.002 46.681 120.446C46.681 127.89 40.625 133.946 33.181 133.946ZM56.074 71.062L82.951 62.089L76.484 88.229L49.607 97.203L56.074 71.062ZM82.476 147.192H54.142L68.554 124.446H96.888L82.476 147.192ZM138.554 124.446H166.888L152.476 147.192H124.142L138.554 124.446ZM131.599 234.372V174.372L179.382 204.372L131.599 234.372ZM222.476 147.192H194.142L208.554 124.446H236.888L222.476 147.192Z" fill="white"/>
</g>
<defs>
<clipPath id="clip0">
<rect width="277.446" height="277.446" fill="white"/>
</clipPath>
</defs>
</svg>
