<svg width="24" height="24" viewBox="0 0 24 24" fill="none" xmlns="http://www.w3.org/2000/svg">
<g opacity="0.75">
<path opacity="0.75" d="M18.853 17.438L15.249 13.834C15.174 13.759 15.083 13.707 14.982 13.678C15.621 12.781 16 11.686 16 10.5C16 7.463 13.537 5 10.5 5C7.463 5 5 7.463 5 10.5C5 13.537 7.463 16 10.5 16C11.686 16 12.781 15.621 13.68 14.982C13.708 15.083 13.76 15.173 13.835 15.249L17.439 18.853C17.74 19.154 18.297 19.08 18.688 18.688C19.079 18.297 19.153 17.739 18.853 17.438ZM10.5 14C8.568 14 7 12.432 7 10.5C7 8.568 8.568 7 10.5 7C12.432 7 14 8.568 14 10.5C14 12.432 12.432 14 10.5 14Z" fill="white"/>
</g>
</svg>
